<?xml version="1.0" encoding="UTF-8" standalone="no"?>
<!DOCTYPE svg PUBLIC "-//W3C//DTD SVG 1.1//EN"
 "http://www.w3.org/Graphics/SVG/1.1/DTD/svg11.dtd">
<!-- Generated by graphviz version 14.1.2 (20260124.0452)
 -->
<!-- Title: multi_friend Pages: 1 -->
<svg width="614pt" height="472pt"
 viewBox="0.00 0.00 614.00 472.00" xmlns="http://www.w3.org/2000/svg" xmlns:xlink="http://www.w3.org/1999/xlink">
<g id="graph0" class="graph" transform="scale(1 1) rotate(0) translate(4 468)">
<title>multi_friend</title>
<polygon fill="white" stroke="none" points="-4,4 -4,-468 610.16,-468 610.16,4 -4,4"/>
<g id="clust1" class="cluster">
<title>cluster_friend1</title>
<path fill="#f7f7f5" stroke="#cccccc" d="M20,-276C20,-276 238.91,-276 238.91,-276 244.91,-276 250.91,-282 250.91,-288 250.91,-288 250.91,-444 250.91,-444 250.91,-450 244.91,-456 238.91,-456 238.91,-456 20,-456 20,-456 14,-456 8,-450 8,-444 8,-444 8,-288 8,-288 8,-282 14,-276 20,-276"/>
<text xml:space="preserve" text-anchor="middle" x="129.46" y="-441.55" font-family="Helvetica,sans-Serif" font-size="11.00">~friend&#45;a</text>
</g>
<g id="clust2" class="cluster">
<title>cluster_friend2</title>
<path fill="#f7f7f5" stroke="#cccccc" d="M20.45,-142C20.45,-142 238.91,-142 238.91,-142 244.91,-142 250.91,-148 250.91,-154 250.91,-154 250.91,-256 250.91,-256 250.91,-262 244.91,-268 238.91,-268 238.91,-268 20.45,-268 20.45,-268 14.45,-268 8.45,-262 8.45,-256 8.45,-256 8.45,-154 8.45,-154 8.45,-148 14.45,-142 20.45,-142"/>
<text xml:space="preserve" text-anchor="middle" x="129.68" y="-253.55" font-family="Helvetica,sans-Serif" font-size="11.00">~friend&#45;b</text>
</g>
<g id="clust3" class="cluster">
<title>cluster_friend3</title>
<path fill="#f7f7f5" stroke="#cccccc" d="M20,-8C20,-8 238.91,-8 238.91,-8 244.91,-8 250.91,-14 250.91,-20 250.91,-20 250.91,-122 250.91,-122 250.91,-128 244.91,-134 238.91,-134 238.91,-134 20,-134 20,-134 14,-134 8,-128 8,-122 8,-122 8,-20 8,-20 8,-14 14,-8 20,-8"/>
<text xml:space="preserve" text-anchor="middle" x="129.46" y="-119.55" font-family="Helvetica,sans-Serif" font-size="11.00">~friend&#45;c</text>
</g>
<g id="clust4" class="cluster">
<title>cluster_publisher</title>
<path fill="#f7f7f5" stroke="#cccccc" d="M308.41,-169C308.41,-169 414.41,-169 414.41,-169 420.41,-169 426.41,-175 426.41,-181 426.41,-181 426.41,-230 426.41,-230 426.41,-236 420.41,-242 414.41,-242 414.41,-242 308.41,-242 308.41,-242 302.41,-242 296.41,-236 296.41,-230 296.41,-230 296.41,-181 296.41,-181 296.41,-175 302.41,-169 308.41,-169"/>
<text xml:space="preserve" text-anchor="middle" x="361.41" y="-226.6" font-family="Helvetica,sans-Serif" font-size="12.00">friend hosting models</text>
</g>
<!-- fa_app1 -->
<g id="node1" class="node">
<title>fa_app1</title>
<ellipse fill="#e8f1fb" stroke="#4a7bb5" cx="63.96" cy="-302" rx="47.96" ry="18"/>
<text xml:space="preserve" text-anchor="middle" x="63.96" y="-297.55" font-family="Helvetica,sans-Serif" font-size="11.00">Continue.dev</text>
</g>
<!-- fa_client -->
<g id="node4" class="node">
<title>fa_client</title>
<path fill="#fff7d8" stroke="#c9a000" d="M230.91,-347C230.91,-347 160.91,-347 160.91,-347 154.91,-347 148.91,-341 148.91,-335 148.91,-335 148.91,-323 148.91,-323 148.91,-317 154.91,-311 160.91,-311 160.91,-311 230.91,-311 230.91,-311 236.91,-311 242.91,-317 242.91,-323 242.91,-323 242.91,-335 242.91,-335 242.91,-341 236.91,-347 230.91,-347"/>
<text xml:space="preserve" text-anchor="middle" x="195.91" y="-324.55" font-family="Helvetica,sans-Serif" font-size="11.00">%llmproxy&#45;client</text>
</g>
<!-- fa_app1&#45;&gt;fa_client -->
<g id="edge1" class="edge">
<title>fa_app1&#45;&gt;fa_client</title>
<path fill="none" stroke="#4a7bb5" d="M106.43,-310.62C116.25,-312.66 126.9,-314.87 137.29,-317.03"/>
<polygon fill="#4a7bb5" stroke="#4a7bb5" points="136.43,-320.42 146.94,-319.03 137.86,-313.57 136.43,-320.42"/>
</g>
<!-- fa_app2 -->
<g id="node2" class="node">
<title>fa_app2</title>
<ellipse fill="#e8f1fb" stroke="#4a7bb5" cx="63.96" cy="-356" rx="41.19" ry="18"/>
<text xml:space="preserve" text-anchor="middle" x="63.96" y="-351.55" font-family="Helvetica,sans-Serif" font-size="11.00">OpenCode</text>
</g>
<!-- fa_app2&#45;&gt;fa_client -->
<g id="edge2" class="edge">
<title>fa_app2&#45;&gt;fa_client</title>
<path fill="none" stroke="#4a7bb5" d="M101.85,-348.34C113,-346.02 125.51,-343.42 137.65,-340.9"/>
<polygon fill="#4a7bb5" stroke="#4a7bb5" points="138.09,-344.38 147.17,-338.92 136.67,-337.53 138.09,-344.38"/>
</g>
<!-- fa_app3 -->
<g id="node3" class="node">
<title>fa_app3</title>
<ellipse fill="#e8f1fb" stroke="#4a7bb5" cx="63.96" cy="-410" rx="27" ry="18"/>
<text xml:space="preserve" text-anchor="middle" x="63.96" y="-405.55" font-family="Helvetica,sans-Serif" font-size="11.00">curl</text>
</g>
<!-- fa_app3&#45;&gt;fa_client -->
<g id="edge3" class="edge">
<title>fa_app3&#45;&gt;fa_client</title>
<path fill="none" stroke="#4a7bb5" d="M85.21,-398.68C93.54,-393.94 103.25,-388.3 111.91,-383 127.16,-373.67 143.72,-363 158.01,-353.63"/>
<polygon fill="#4a7bb5" stroke="#4a7bb5" points="159.8,-356.64 166.22,-348.22 155.95,-350.8 159.8,-356.64"/>
</g>
<!-- pub_node -->
<g id="node11" class="node">
<title>pub_node</title>
<path fill="#fff7d8" stroke="#c9a000" d="M395.54,-213C395.54,-213 326.29,-213 326.29,-213 320.29,-213 314.29,-207 314.29,-201 314.29,-201 314.29,-189 314.29,-189 314.29,-183 320.29,-177 326.29,-177 326.29,-177 395.54,-177 395.54,-177 401.54,-177 407.54,-183 407.54,-189 407.54,-189 407.54,-201 407.54,-201 407.54,-207 401.54,-213 395.54,-213"/>
<text xml:space="preserve" text-anchor="middle" x="360.91" y="-190.55" font-family="Helvetica,sans-Serif" font-size="11.00">%llmproxy&#45;node</text>
</g>
<!-- fa_client&#45;&gt;pub_node -->
<g id="edge8" class="edge">
<title>fa_client&#45;&gt;pub_node</title>
<path fill="none" stroke="#3aa37a" stroke-width="2" d="M219.24,-310.65C247.32,-287.56 295.76,-247.74 327.81,-221.39"/>
<polygon fill="#3aa37a" stroke="#3aa37a" stroke-width="2" points="329.76,-224.32 335.26,-215.27 325.31,-218.91 329.76,-224.32"/>
<text xml:space="preserve" text-anchor="middle" x="273.66" y="-275.75" font-family="Helvetica,sans-Serif" font-size="10.00">Ames</text>
</g>
<!-- fb_app1 -->
<g id="node5" class="node">
<title>fb_app1</title>
<ellipse fill="#e8f1fb" stroke="#4a7bb5" cx="63.96" cy="-168" rx="43.45" ry="18"/>
<text xml:space="preserve" text-anchor="middle" x="63.96" y="-163.55" font-family="Helvetica,sans-Serif" font-size="11.00">AtomicChat</text>
</g>
<!-- fb_client -->
<g id="node7" class="node">
<title>fb_client</title>
<path fill="#fff7d8" stroke="#c9a000" d="M230.91,-213C230.91,-213 160.91,-213 160.91,-213 154.91,-213 148.91,-207 148.91,-201 148.91,-201 148.91,-189 148.91,-189 148.91,-183 154.91,-177 160.91,-177 160.91,-177 230.91,-177 230.91,-177 236.91,-177 242.91,-183 242.91,-189 242.91,-189 242.91,-201 242.91,-201 242.91,-207 236.91,-213 230.91,-213"/>
<text xml:space="preserve" text-anchor="middle" x="195.91" y="-190.55" font-family="Helvetica,sans-Serif" font-size="11.00">%llmproxy&#45;client</text>
</g>
<!-- fb_app1&#45;&gt;fb_client -->
<g id="edge4" class="edge">
<title>fb_app1&#45;&gt;fb_client</title>
<path fill="none" stroke="#4a7bb5" d="M103.25,-175.95C114.03,-178.19 125.99,-180.68 137.62,-183.1"/>
<polygon fill="#4a7bb5" stroke="#4a7bb5" points="136.64,-186.47 147.14,-185.08 138.07,-179.61 136.64,-186.47"/>
</g>
<!-- fb_app2 -->
<g id="node6" class="node">
<title>fb_app2</title>
<ellipse fill="#e8f1fb" stroke="#4a7bb5" cx="63.96" cy="-222" rx="47.51" ry="18"/>
<text xml:space="preserve" text-anchor="middle" x="63.96" y="-217.55" font-family="Helvetica,sans-Serif" font-size="11.00">Open WebUI</text>
</g>
<!-- fb_app2&#45;&gt;fb_client -->
<g id="edge5" class="edge">
<title>fb_app2&#45;&gt;fb_client</title>
<path fill="none" stroke="#4a7bb5" d="M106.43,-213.38C116.25,-211.34 126.9,-209.13 137.29,-206.97"/>
<polygon fill="#4a7bb5" stroke="#4a7bb5" points="137.86,-210.43 146.94,-204.97 136.43,-203.58 137.86,-210.43"/>
</g>
<!-- fb_client&#45;&gt;pub_node -->
<g id="edge9" class="edge">
<title>fb_client&#45;&gt;pub_node</title>
<path fill="none" stroke="#3aa37a" stroke-width="2" d="M243.19,-195C261.16,-195 281.96,-195 300.98,-195"/>
<polygon fill="#3aa37a" stroke="#3aa37a" stroke-width="2" points="300.78,-198.5 310.78,-195 300.78,-191.5 300.78,-198.5"/>
<text xml:space="preserve" text-anchor="middle" x="273.66" y="-196.75" font-family="Helvetica,sans-Serif" font-size="10.00">Ames</text>
</g>
<!-- fc_app1 -->
<g id="node8" class="node">
<title>fc_app1</title>
<ellipse fill="#e8f1fb" stroke="#4a7bb5" cx="63.96" cy="-34" rx="39.84" ry="18"/>
<text xml:space="preserve" text-anchor="middle" x="63.96" y="-29.55" font-family="Helvetica,sans-Serif" font-size="11.00">shell script</text>
</g>
<!-- fc_client -->
<g id="node10" class="node">
<title>fc_client</title>
<path fill="#fff7d8" stroke="#c9a000" d="M230.91,-106C230.91,-106 160.91,-106 160.91,-106 154.91,-106 148.91,-100 148.91,-94 148.91,-94 148.91,-82 148.91,-82 148.91,-76 154.91,-70 160.91,-70 160.91,-70 230.91,-70 230.91,-70 236.91,-70 242.91,-76 242.91,-82 242.91,-82 242.91,-94 242.91,-94 242.91,-100 236.91,-106 230.91,-106"/>
<text xml:space="preserve" text-anchor="middle" x="195.91" y="-83.55" font-family="Helvetica,sans-Serif" font-size="11.00">%llmproxy&#45;client</text>
</g>
<!-- fc_app1&#45;&gt;fc_client -->
<g id="edge6" class="edge">
<title>fc_app1&#45;&gt;fc_client</title>
<path fill="none" stroke="#4a7bb5" d="M94.12,-46.12C107.75,-51.78 124.43,-58.71 140.28,-65.3"/>
<polygon fill="#4a7bb5" stroke="#4a7bb5" points="138.55,-68.37 149.13,-68.98 141.24,-61.91 138.55,-68.37"/>
</g>
<!-- fc_app2 -->
<g id="node9" class="node">
<title>fc_app2</title>
<ellipse fill="#e8f1fb" stroke="#4a7bb5" cx="63.96" cy="-88" rx="47.96" ry="18"/>
<text xml:space="preserve" text-anchor="middle" x="63.96" y="-83.55" font-family="Helvetica,sans-Serif" font-size="11.00">Continue.dev</text>
</g>
<!-- fc_app2&#45;&gt;fc_client -->
<g id="edge7" class="edge">
<title>fc_app2&#45;&gt;fc_client</title>
<path fill="none" stroke="#4a7bb5" d="M112.24,-88C120.42,-88 129.01,-88 137.43,-88"/>
<polygon fill="#4a7bb5" stroke="#4a7bb5" points="137.24,-91.5 147.24,-88 137.24,-84.5 137.24,-91.5"/>
</g>
<!-- fc_client&#45;&gt;pub_node -->
<g id="edge10" class="edge">
<title>fc_client&#45;&gt;pub_node</title>
<path fill="none" stroke="#3aa37a" stroke-width="2" d="M224.93,-106.39C251.49,-123.83 291.6,-150.16 321.21,-169.59"/>
<polygon fill="#3aa37a" stroke="#3aa37a" stroke-width="2" points="319.18,-172.44 329.46,-175.01 323.02,-166.59 319.18,-172.44"/>
<text xml:space="preserve" text-anchor="middle" x="273.66" y="-146.46" font-family="Helvetica,sans-Serif" font-size="10.00">Ames</text>
</g>
<!-- ollama -->
<g id="node12" class="node">
<title>ollama</title>
<path fill="#fde8e8" stroke="#b54a4a" d="M606.16,-209.73C606.16,-211.53 587.11,-213 563.66,-213 540.21,-213 521.16,-211.53 521.16,-209.73 521.16,-209.73 521.16,-180.27 521.16,-180.27 521.16,-178.47 540.21,-177 563.66,-177 587.11,-177 606.16,-178.47 606.16,-180.27 606.16,-180.27 606.16,-209.73 606.16,-209.73"/>
<path fill="none" stroke="#b54a4a" d="M606.16,-209.73C606.16,-207.92 587.11,-206.45 563.66,-206.45 540.21,-206.45 521.16,-207.92 521.16,-209.73"/>
<text xml:space="preserve" text-anchor="middle" x="563.66" y="-190.55" font-family="Helvetica,sans-Serif" font-size="11.00">Ollama / vLLM</text>
</g>
<!-- pub_node&#45;&gt;ollama -->
<g id="edge11" class="edge">
<title>pub_node&#45;&gt;ollama</title>
<path fill="none" stroke="#b54a4a" d="M407.97,-195C438.28,-195 478.05,-195 509.67,-195"/>
<polygon fill="#b54a4a" stroke="#b54a4a" points="509.41,-198.5 519.41,-195 509.41,-191.5 509.41,-198.5"/>
<text xml:space="preserve" text-anchor="middle" x="469.79" y="-196.75" font-family="Helvetica,sans-Serif" font-size="10.00">HTTP via %iris</text>
</g>
</g>
</svg>
