<?xml version="1.0" encoding="UTF-8" standalone="no"?>
<!DOCTYPE svg PUBLIC "-//W3C//DTD SVG 1.1//EN"
 "http://www.w3.org/Graphics/SVG/1.1/DTD/svg11.dtd">
<!-- Generated by graphviz version 14.1.2 (20260124.0452)
 -->
<!-- Title: multi_friend Pages: 1 -->
<svg width="620pt" height="526pt"
 viewBox="0.00 0.00 620.00 526.00" xmlns="http://www.w3.org/2000/svg" xmlns:xlink="http://www.w3.org/1999/xlink">
<g id="graph0" class="graph" transform="scale(1 1) rotate(0) translate(4 522)">
<title>multi_friend</title>
<polygon fill="white" stroke="none" points="-4,4 -4,-522 616.48,-522 616.48,4 -4,4"/>
<g id="clust1" class="cluster">
<title>cluster_friend1</title>
<path fill="#f7f7f5" stroke="#cccccc" d="M20,-330C20,-330 245.23,-330 245.23,-330 251.23,-330 257.23,-336 257.23,-342 257.23,-342 257.23,-498 257.23,-498 257.23,-504 251.23,-510 245.23,-510 245.23,-510 20,-510 20,-510 14,-510 8,-504 8,-498 8,-498 8,-342 8,-342 8,-336 14,-330 20,-330"/>
<text xml:space="preserve" text-anchor="middle" x="132.61" y="-495.55" font-family="Helvetica,sans-Serif" font-size="11.00">~javnex&#45;ridpel</text>
</g>
<g id="clust2" class="cluster">
<title>cluster_friend2</title>
<path fill="#f7f7f5" stroke="#cccccc" d="M23.61,-142C23.61,-142 245.23,-142 245.23,-142 251.23,-142 257.23,-148 257.23,-154 257.23,-154 257.23,-310 257.23,-310 257.23,-316 251.23,-322 245.23,-322 245.23,-322 23.61,-322 23.61,-322 17.61,-322 11.61,-316 11.61,-310 11.61,-310 11.61,-154 11.61,-154 11.61,-148 17.61,-142 23.61,-142"/>
<text xml:space="preserve" text-anchor="middle" x="134.42" y="-307.55" font-family="Helvetica,sans-Serif" font-size="11.00">~jorvuk&#45;modpyt</text>
</g>
<g id="clust3" class="cluster">
<title>cluster_friend3</title>
<path fill="#f7f7f5" stroke="#cccccc" d="M20,-8C20,-8 245.23,-8 245.23,-8 251.23,-8 257.23,-14 257.23,-20 257.23,-20 257.23,-122 257.23,-122 257.23,-128 251.23,-134 245.23,-134 245.23,-134 20,-134 20,-134 14,-134 8,-128 8,-122 8,-122 8,-20 8,-20 8,-14 14,-8 20,-8"/>
<text xml:space="preserve" text-anchor="middle" x="132.61" y="-119.55" font-family="Helvetica,sans-Serif" font-size="11.00">~jenmol&#45;bixsyl</text>
</g>
<g id="clust4" class="cluster">
<title>cluster_publisher</title>
<path fill="#f7f7f5" stroke="#cccccc" d="M314.73,-196C314.73,-196 420.73,-196 420.73,-196 426.73,-196 432.73,-202 432.73,-208 432.73,-208 432.73,-257 432.73,-257 432.73,-263 426.73,-269 420.73,-269 420.73,-269 314.73,-269 314.73,-269 308.73,-269 302.73,-263 302.73,-257 302.73,-257 302.73,-208 302.73,-208 302.73,-202 308.73,-196 314.73,-196"/>
<text xml:space="preserve" text-anchor="middle" x="367.73" y="-253.6" font-family="Helvetica,sans-Serif" font-size="12.00">friend hosting models</text>
</g>
<!-- fa_app1 -->
<g id="node1" class="node">
<title>fa_app1</title>
<ellipse fill="#e8f1fb" stroke="#4a7bb5" cx="67.11" cy="-356" rx="51.11" ry="18"/>
<text xml:space="preserve" text-anchor="middle" x="67.11" y="-351.55" font-family="Helvetica,sans-Serif" font-size="11.00">Hermes Agent</text>
</g>
<!-- fa_client -->
<g id="node4" class="node">
<title>fa_client</title>
<path fill="#fff7d8" stroke="#c9a000" d="M237.23,-401C237.23,-401 167.23,-401 167.23,-401 161.23,-401 155.23,-395 155.23,-389 155.23,-389 155.23,-377 155.23,-377 155.23,-371 161.23,-365 167.23,-365 167.23,-365 237.23,-365 237.23,-365 243.23,-365 249.23,-371 249.23,-377 249.23,-377 249.23,-389 249.23,-389 249.23,-395 243.23,-401 237.23,-401"/>
<text xml:space="preserve" text-anchor="middle" x="202.23" y="-378.55" font-family="Helvetica,sans-Serif" font-size="11.00">%llmproxy&#45;client</text>
</g>
<!-- fa_app1&#45;&gt;fa_client -->
<g id="edge1" class="edge">
<title>fa_app1&#45;&gt;fa_client</title>
<path fill="none" stroke="#4a7bb5" d="M112.07,-364.92C122.3,-366.99 133.34,-369.23 144.04,-371.4"/>
<polygon fill="#4a7bb5" stroke="#4a7bb5" points="143.05,-374.77 153.55,-373.33 144.45,-367.91 143.05,-374.77"/>
</g>
<!-- fa_app2 -->
<g id="node2" class="node">
<title>fa_app2</title>
<ellipse fill="#e8f1fb" stroke="#4a7bb5" cx="67.11" cy="-410" rx="41.19" ry="18"/>
<text xml:space="preserve" text-anchor="middle" x="67.11" y="-405.55" font-family="Helvetica,sans-Serif" font-size="11.00">OpenCode</text>
</g>
<!-- fa_app2&#45;&gt;fa_client -->
<g id="edge2" class="edge">
<title>fa_app2&#45;&gt;fa_client</title>
<path fill="none" stroke="#4a7bb5" d="M105.19,-402.48C117.09,-400.07 130.57,-397.33 143.58,-394.69"/>
<polygon fill="#4a7bb5" stroke="#4a7bb5" points="144.26,-398.13 153.36,-392.71 142.87,-391.27 144.26,-398.13"/>
</g>
<!-- fa_app3 -->
<g id="node3" class="node">
<title>fa_app3</title>
<ellipse fill="#e8f1fb" stroke="#4a7bb5" cx="67.11" cy="-464" rx="27" ry="18"/>
<text xml:space="preserve" text-anchor="middle" x="67.11" y="-459.55" font-family="Helvetica,sans-Serif" font-size="11.00">curl</text>
</g>
<!-- fa_app3&#45;&gt;fa_client -->
<g id="edge3" class="edge">
<title>fa_app3&#45;&gt;fa_client</title>
<path fill="none" stroke="#4a7bb5" d="M89.3,-453.08C98.31,-448.31 108.88,-442.55 118.23,-437 133.72,-427.81 150.44,-417.09 164.79,-407.64"/>
<polygon fill="#4a7bb5" stroke="#4a7bb5" points="166.64,-410.61 173.03,-402.17 162.77,-404.78 166.64,-410.61"/>
</g>
<!-- pub_node -->
<g id="node12" class="node">
<title>pub_node</title>
<path fill="#fff7d8" stroke="#c9a000" d="M401.85,-240C401.85,-240 332.6,-240 332.6,-240 326.6,-240 320.6,-234 320.6,-228 320.6,-228 320.6,-216 320.6,-216 320.6,-210 326.6,-204 332.6,-204 332.6,-204 401.85,-204 401.85,-204 407.85,-204 413.85,-210 413.85,-216 413.85,-216 413.85,-228 413.85,-228 413.85,-234 407.85,-240 401.85,-240"/>
<text xml:space="preserve" text-anchor="middle" x="367.23" y="-217.55" font-family="Helvetica,sans-Serif" font-size="11.00">%llmproxy&#45;node</text>
</g>
<!-- fa_client&#45;&gt;pub_node -->
<g id="edge9" class="edge">
<title>fa_client&#45;&gt;pub_node</title>
<path fill="none" stroke="#3aa37a" stroke-width="2" d="M221.93,-364.53C250.54,-336.27 305.37,-282.11 338.59,-249.3"/>
<polygon fill="#3aa37a" stroke="#3aa37a" stroke-width="2" points="340.94,-251.9 345.59,-242.38 336.02,-246.92 340.94,-251.9"/>
<text xml:space="preserve" text-anchor="middle" x="279.98" y="-318.67" font-family="Helvetica,sans-Serif" font-size="10.00">Ames</text>
</g>
<!-- fb_app1 -->
<g id="node5" class="node">
<title>fb_app1</title>
<ellipse fill="#e8f1fb" stroke="#4a7bb5" cx="67.11" cy="-168" rx="43.45" ry="18"/>
<text xml:space="preserve" text-anchor="middle" x="67.11" y="-163.55" font-family="Helvetica,sans-Serif" font-size="11.00">AtomicChat</text>
</g>
<!-- fb_client -->
<g id="node8" class="node">
<title>fb_client</title>
<path fill="#fff7d8" stroke="#c9a000" d="M237.23,-240C237.23,-240 167.23,-240 167.23,-240 161.23,-240 155.23,-234 155.23,-228 155.23,-228 155.23,-216 155.23,-216 155.23,-210 161.23,-204 167.23,-204 167.23,-204 237.23,-204 237.23,-204 243.23,-204 249.23,-210 249.23,-216 249.23,-216 249.23,-228 249.23,-228 249.23,-234 243.23,-240 237.23,-240"/>
<text xml:space="preserve" text-anchor="middle" x="202.23" y="-217.55" font-family="Helvetica,sans-Serif" font-size="11.00">%llmproxy&#45;client</text>
</g>
<!-- fb_app1&#45;&gt;fb_client -->
<g id="edge4" class="edge">
<title>fb_app1&#45;&gt;fb_client</title>
<path fill="none" stroke="#4a7bb5" d="M98.99,-180.52C112.78,-186.12 129.49,-192.9 145.36,-199.34"/>
<polygon fill="#4a7bb5" stroke="#4a7bb5" points="143.64,-202.42 154.22,-202.93 146.27,-195.93 143.64,-202.42"/>
</g>
<!-- fb_app2 -->
<g id="node6" class="node">
<title>fb_app2</title>
<ellipse fill="#e8f1fb" stroke="#4a7bb5" cx="67.11" cy="-222" rx="47.51" ry="18"/>
<text xml:space="preserve" text-anchor="middle" x="67.11" y="-217.55" font-family="Helvetica,sans-Serif" font-size="11.00">Open WebUI</text>
</g>
<!-- fb_app2&#45;&gt;fb_client -->
<g id="edge5" class="edge">
<title>fb_app2&#45;&gt;fb_client</title>
<path fill="none" stroke="#4a7bb5" d="M115.04,-222C124.3,-222 134.12,-222 143.68,-222"/>
<polygon fill="#4a7bb5" stroke="#4a7bb5" points="143.65,-225.5 153.65,-222 143.65,-218.5 143.65,-225.5"/>
</g>
<!-- fb_app3 -->
<g id="node7" class="node">
<title>fb_app3</title>
<ellipse fill="#e8f1fb" stroke="#4a7bb5" cx="67.11" cy="-276" rx="27" ry="18"/>
<text xml:space="preserve" text-anchor="middle" x="67.11" y="-271.55" font-family="Helvetica,sans-Serif" font-size="11.00">pi</text>
</g>
<!-- fb_app3&#45;&gt;fb_client -->
<g id="edge6" class="edge">
<title>fb_app3&#45;&gt;fb_client</title>
<path fill="none" stroke="#4a7bb5" d="M90.69,-266.84C105.72,-260.75 126.14,-252.46 145.35,-244.67"/>
<polygon fill="#4a7bb5" stroke="#4a7bb5" points="146.51,-247.98 154.46,-240.97 143.87,-241.49 146.51,-247.98"/>
</g>
<!-- fb_client&#45;&gt;pub_node -->
<g id="edge10" class="edge">
<title>fb_client&#45;&gt;pub_node</title>
<path fill="none" stroke="#3aa37a" stroke-width="2" d="M249.5,-222C267.47,-222 288.27,-222 307.29,-222"/>
<polygon fill="#3aa37a" stroke="#3aa37a" stroke-width="2" points="307.09,-225.5 317.09,-222 307.09,-218.5 307.09,-225.5"/>
<text xml:space="preserve" text-anchor="middle" x="279.98" y="-223.75" font-family="Helvetica,sans-Serif" font-size="10.00">Ames</text>
</g>
<!-- fc_app1 -->
<g id="node9" class="node">
<title>fc_app1</title>
<ellipse fill="#e8f1fb" stroke="#4a7bb5" cx="67.11" cy="-34" rx="39.84" ry="18"/>
<text xml:space="preserve" text-anchor="middle" x="67.11" y="-29.55" font-family="Helvetica,sans-Serif" font-size="11.00">shell script</text>
</g>
<!-- fc_client -->
<g id="node11" class="node">
<title>fc_client</title>
<path fill="#fff7d8" stroke="#c9a000" d="M237.23,-106C237.23,-106 167.23,-106 167.23,-106 161.23,-106 155.23,-100 155.23,-94 155.23,-94 155.23,-82 155.23,-82 155.23,-76 161.23,-70 167.23,-70 167.23,-70 237.23,-70 237.23,-70 243.23,-70 249.23,-76 249.23,-82 249.23,-82 249.23,-94 249.23,-94 249.23,-100 243.23,-106 237.23,-106"/>
<text xml:space="preserve" text-anchor="middle" x="202.23" y="-83.55" font-family="Helvetica,sans-Serif" font-size="11.00">%llmproxy&#45;client</text>
</g>
<!-- fc_app1&#45;&gt;fc_client -->
<g id="edge7" class="edge">
<title>fc_app1&#45;&gt;fc_client</title>
<path fill="none" stroke="#4a7bb5" d="M97.66,-45.98C111.67,-51.67 128.89,-58.65 145.24,-65.29"/>
<polygon fill="#4a7bb5" stroke="#4a7bb5" points="143.83,-68.49 154.41,-69.01 146.46,-62 143.83,-68.49"/>
</g>
<!-- fc_app2 -->
<g id="node10" class="node">
<title>fc_app2</title>
<ellipse fill="#e8f1fb" stroke="#4a7bb5" cx="67.11" cy="-88" rx="51.11" ry="18"/>
<text xml:space="preserve" text-anchor="middle" x="67.11" y="-83.55" font-family="Helvetica,sans-Serif" font-size="11.00">Hermes Agent</text>
</g>
<!-- fc_app2&#45;&gt;fc_client -->
<g id="edge8" class="edge">
<title>fc_app2&#45;&gt;fc_client</title>
<path fill="none" stroke="#4a7bb5" d="M118.44,-88C126.64,-88 135.19,-88 143.55,-88"/>
<polygon fill="#4a7bb5" stroke="#4a7bb5" points="143.27,-91.5 153.27,-88 143.27,-84.5 143.27,-91.5"/>
</g>
<!-- fc_client&#45;&gt;pub_node -->
<g id="edge11" class="edge">
<title>fc_client&#45;&gt;pub_node</title>
<path fill="none" stroke="#3aa37a" stroke-width="2" d="M225.55,-106.35C253.64,-129.44 302.07,-169.26 334.13,-195.61"/>
<polygon fill="#3aa37a" stroke="#3aa37a" stroke-width="2" points="331.63,-198.09 341.58,-201.73 336.07,-192.68 331.63,-198.09"/>
<text xml:space="preserve" text-anchor="middle" x="279.98" y="-160.77" font-family="Helvetica,sans-Serif" font-size="10.00">Ames</text>
</g>
<!-- ollama -->
<g id="node13" class="node">
<title>ollama</title>
<path fill="#fde8e8" stroke="#b54a4a" d="M612.48,-236.73C612.48,-238.53 593.43,-240 569.98,-240 546.53,-240 527.48,-238.53 527.48,-236.73 527.48,-236.73 527.48,-207.27 527.48,-207.27 527.48,-205.47 546.53,-204 569.98,-204 593.43,-204 612.48,-205.47 612.48,-207.27 612.48,-207.27 612.48,-236.73 612.48,-236.73"/>
<path fill="none" stroke="#b54a4a" d="M612.48,-236.73C612.48,-234.92 593.43,-233.45 569.98,-233.45 546.53,-233.45 527.48,-234.92 527.48,-236.73"/>
<text xml:space="preserve" text-anchor="middle" x="569.98" y="-217.55" font-family="Helvetica,sans-Serif" font-size="11.00">Ollama / vLLM</text>
</g>
<!-- pub_node&#45;&gt;ollama -->
<g id="edge12" class="edge">
<title>pub_node&#45;&gt;ollama</title>
<path fill="none" stroke="#b54a4a" d="M414.28,-222C444.59,-222 484.36,-222 515.99,-222"/>
<polygon fill="#b54a4a" stroke="#b54a4a" points="515.72,-225.5 525.72,-222 515.72,-218.5 515.72,-225.5"/>
<text xml:space="preserve" text-anchor="middle" x="476.1" y="-223.75" font-family="Helvetica,sans-Serif" font-size="10.00">HTTP via %iris</text>
</g>
</g>
</svg>
