<?xml version="1.0" encoding="UTF-8" standalone="no"?>
<!DOCTYPE svg PUBLIC "-//W3C//DTD SVG 1.1//EN"
 "http://www.w3.org/Graphics/SVG/1.1/DTD/svg11.dtd">
<!-- Generated by graphviz version 14.1.2 (20260124.0452)
 -->
<!-- Title: single_ship Pages: 1 -->
<svg width="1006pt" height="101pt"
 viewBox="0.00 0.00 1006.00 101.00" xmlns="http://www.w3.org/2000/svg" xmlns:xlink="http://www.w3.org/1999/xlink">
<g id="graph0" class="graph" transform="scale(1 1) rotate(0) translate(4 97)">
<title>single_ship</title>
<polygon fill="white" stroke="none" points="-4,4 -4,-97 1001.85,-97 1001.85,4 -4,4"/>
<g id="clust1" class="cluster">
<title>cluster_ship</title>
<path fill="#f7f7f5" stroke="#cccccc" d="M454.35,-8C454.35,-8 751.35,-8 751.35,-8 757.35,-8 763.35,-14 763.35,-20 763.35,-20 763.35,-73 763.35,-73 763.35,-79 757.35,-85 751.35,-85 751.35,-85 454.35,-85 454.35,-85 448.35,-85 442.35,-79 442.35,-73 442.35,-73 442.35,-20 442.35,-20 442.35,-14 448.35,-8 454.35,-8"/>
<text xml:space="preserve" text-anchor="middle" x="602.85" y="-69.6" font-family="Helvetica,sans-Serif" font-size="12.00">Your ship</text>
</g>
<!-- client -->
<g id="node1" class="node">
<title>client</title>
<ellipse fill="#e8f1fb" stroke="#4a7bb5" cx="126.93" cy="-34" rx="126.93" ry="22.63"/>
<text xml:space="preserve" text-anchor="middle" x="126.93" y="-35.55" font-family="Helvetica,sans-Serif" font-size="11.00">OpenAI client</text>
<text xml:space="preserve" text-anchor="middle" x="126.93" y="-23.55" font-family="Helvetica,sans-Serif" font-size="11.00">(curl, Continue.dev, Open WebUI)</text>
</g>
<!-- shim -->
<g id="node2" class="node">
<title>shim</title>
<path fill="#fff7d8" stroke="#c9a000" d="M552.6,-52C552.6,-52 462.35,-52 462.35,-52 456.35,-52 450.35,-46 450.35,-40 450.35,-40 450.35,-28 450.35,-28 450.35,-22 456.35,-16 462.35,-16 462.35,-16 552.6,-16 552.6,-16 558.6,-16 564.6,-22 564.6,-28 564.6,-28 564.6,-40 564.6,-40 564.6,-46 558.6,-52 552.6,-52"/>
<text xml:space="preserve" text-anchor="middle" x="507.48" y="-35.55" font-family="Helvetica,sans-Serif" font-size="11.00">%llmproxy&#45;shim</text>
<text xml:space="preserve" text-anchor="middle" x="507.48" y="-23.55" font-family="Helvetica,sans-Serif" font-size="11.00">Eyre HTTP gateway</text>
</g>
<!-- client&#45;&gt;shim -->
<g id="edge2" class="edge">
<title>client&#45;&gt;shim</title>
<path fill="none" stroke="#4a7bb5" d="M254.24,-34C316.01,-34 387.87,-34 439.05,-34"/>
<polygon fill="#4a7bb5" stroke="#4a7bb5" points="438.78,-37.5 448.78,-34 438.78,-30.5 438.78,-37.5"/>
<text xml:space="preserve" text-anchor="middle" x="352.1" y="-35.75" font-family="Helvetica,sans-Serif" font-size="10.00">POST /llmproxy/v1/chat/completions</text>
</g>
<!-- nodea -->
<g id="node3" class="node">
<title>nodea</title>
<path fill="#fff7d8" stroke="#c9a000" d="M743.35,-52C743.35,-52 674.1,-52 674.1,-52 668.1,-52 662.1,-46 662.1,-40 662.1,-40 662.1,-28 662.1,-28 662.1,-22 668.1,-16 674.1,-16 674.1,-16 743.35,-16 743.35,-16 749.35,-16 755.35,-22 755.35,-28 755.35,-28 755.35,-40 755.35,-40 755.35,-46 749.35,-52 743.35,-52"/>
<text xml:space="preserve" text-anchor="middle" x="708.73" y="-35.55" font-family="Helvetica,sans-Serif" font-size="11.00">%llmproxy&#45;node</text>
<text xml:space="preserve" text-anchor="middle" x="708.73" y="-23.55" font-family="Helvetica,sans-Serif" font-size="11.00">router to Ollama</text>
</g>
<!-- shim&#45;&gt;nodea -->
<g id="edge1" class="edge">
<title>shim&#45;&gt;nodea</title>
<path fill="none" stroke="#888888" d="M565.04,-34C591.82,-34 623.74,-34 650.59,-34"/>
<polygon fill="#888888" stroke="#888888" points="650.24,-37.5 660.24,-34 650.24,-30.5 650.24,-37.5"/>
<text xml:space="preserve" text-anchor="middle" x="613.35" y="-47" font-family="Helvetica,sans-Serif" font-size="10.00">Gall poke</text>
<text xml:space="preserve" text-anchor="middle" x="613.35" y="-35.75" font-family="Helvetica,sans-Serif" font-size="10.00">+ subscription</text>
</g>
<!-- ollama -->
<g id="node4" class="node">
<title>ollama</title>
<path fill="#fde8e8" stroke="#b54a4a" d="M997.85,-52C997.85,-54.21 966.53,-56 927.98,-56 889.42,-56 858.1,-54.21 858.1,-52 858.1,-52 858.1,-16 858.1,-16 858.1,-13.79 889.42,-12 927.98,-12 966.53,-12 997.85,-13.79 997.85,-16 997.85,-16 997.85,-52 997.85,-52"/>
<path fill="none" stroke="#b54a4a" d="M997.85,-52C997.85,-49.79 966.53,-48 927.98,-48 889.42,-48 858.1,-49.79 858.1,-52"/>
<text xml:space="preserve" text-anchor="middle" x="927.98" y="-35.55" font-family="Helvetica,sans-Serif" font-size="11.00">Ollama / vLLM / llama.cpp</text>
<text xml:space="preserve" text-anchor="middle" x="927.98" y="-23.55" font-family="Helvetica,sans-Serif" font-size="11.00">localhost:11434</text>
</g>
<!-- nodea&#45;&gt;ollama -->
<g id="edge3" class="edge">
<title>nodea&#45;&gt;ollama</title>
<path fill="none" stroke="#b54a4a" d="M755.8,-34C782.2,-34 816.08,-34 846.72,-34"/>
<polygon fill="#b54a4a" stroke="#b54a4a" points="846.33,-37.5 856.33,-34 846.33,-30.5 846.33,-37.5"/>
<text xml:space="preserve" text-anchor="middle" x="806.73" y="-35.75" font-family="Helvetica,sans-Serif" font-size="10.00">HTTP via %iris</text>
</g>
</g>
</svg>
